<svg xmlns="http://www.w3.org/2000/svg" width="2560" height="1440" viewBox="0 0 2560 1440"><defs>
      <radialGradient id="bg" cx="50%" cy="38%" r="80%">
        <stop offset="0%" stop-color="#17573a"/>
        <stop offset="55%" stop-color="#0e3b26"/>
        <stop offset="100%" stop-color="#082416"/>
      </radialGradient>
    </defs><rect width="2560" height="1440" fill="url(#bg)"/><text x="64" y="64" font-size="34" text-anchor="middle" fill="#eae3cd" opacity="0.035" transform="rotate(45 64 64)">♠</text><text x="192" y="64" font-size="34" text-anchor="middle" fill="#eae3cd" opacity="0.035" transform="rotate(45 192 64)">♥</text><text x="320" y="64" font-size="34" text-anchor="middle" fill="#eae3cd" opacity="0.035" transform="rotate(45 320 64)">♦</text><text x="448" y="64" font-size="34" text-anchor="middle" fill="#eae3cd" opacity="0.035" transform="rotate(45 448 64)">♣</text><text x="576" y="64" font-size="34" text-anchor="middle" fill="#eae3cd" opacity="0.035" transform="rotate(45 576 64)">♠</text><text x="704" y="64" font-size="34" text-anchor="middle" fill="#eae3cd" opacity="0.035" transform="rotate(45 704 64)">♥</text><text x="832" y="64" font-size="34" text-anchor="middle" fill="#eae3cd" opacity="0.035" transform="rotate(45 832 64)">♦</text><text x="960" y="64" font-size="34" text-anchor="middle" fill="#eae3cd" opacity="0.035" transform="rotate(45 960 64)">♣</text><text x="1088" y="64" font-size="34" text-anchor="middle" fill="#eae3cd" opacity="0.035" transform="rotate(45 1088 64)">♠</text><text x="1216" y="64" font-size="34" text-anchor="middle" fill="#eae3cd" opacity="0.035" transform="rotate(45 1216 64)">♥</text><text x="1344" y="64" font-size="34" text-anchor="middle" fill="#eae3cd" opacity="0.035" transform="rotate(45 1344 64)">♦</text><text x="1472" y="64" font-size="34" text-anchor="middle" fill="#eae3cd" opacity="0.035" transform="rotate(45 1472 64)">♣</text><text x="1600" y="64" font-size="34" text-anchor="middle" fill="#eae3cd" opacity="0.035" transform="rotate(45 1600 64)">♠</text><text x="1728" y="64" font-size="34" text-anchor="middle" fill="#eae3cd" opacity="0.035" transform="rotate(45 1728 64)">♥</text><text x="1856" y="64" font-size="34" text-anchor="middle" fill="#eae3cd" opacity="0.035" transform="rotate(45 1856 64)">♦</text><text x="1984" y="64" font-size="34" text-anchor="middle" fill="#eae3cd" opacity="0.035" transform="rotate(45 1984 64)">♣</text><text x="2112" y="64" font-size="34" text-anchor="middle" fill="#eae3cd" opacity="0.035" transform="rotate(45 2112 64)">♠</text><text x="2240" y="64" font-size="34" text-anchor="middle" fill="#eae3cd" opacity="0.035" transform="rotate(45 2240 64)">♥</text><text x="2368" y="64" font-size="34" text-anchor="middle" fill="#eae3cd" opacity="0.035" transform="rotate(45 2368 64)">♦</text><text x="2496" y="64" font-size="34" text-anchor="middle" fill="#eae3cd" opacity="0.035" transform="rotate(45 2496 64)">♣</text><text x="2624" y="64" font-size="34" text-anchor="middle" fill="#eae3cd" opacity="0.035" transform="rotate(45 2624 64)">♠</text><text x="128" y="192" font-size="34" text-anchor="middle" fill="#eae3cd" opacity="0.035" transform="rotate(45 128 192)">♥</text><text x="256" y="192" font-size="34" text-anchor="middle" fill="#eae3cd" opacity="0.035" transform="rotate(45 256 192)">♦</text><text x="384" y="192" font-size="34" text-anchor="middle" fill="#eae3cd" opacity="0.035" transform="rotate(45 384 192)">♣</text><text x="512" y="192" font-size="34" text-anchor="middle" fill="#eae3cd" opacity="0.035" transform="rotate(45 512 192)">♠</text><text x="640" y="192" font-size="34" text-anchor="middle" fill="#eae3cd" opacity="0.035" transform="rotate(45 640 192)">♥</text><text x="768" y="192" font-size="34" text-anchor="middle" fill="#eae3cd" opacity="0.035" transform="rotate(45 768 192)">♦</text><text x="896" y="192" font-size="34" text-anchor="middle" fill="#eae3cd" opacity="0.035" transform="rotate(45 896 192)">♣</text><text x="1024" y="192" font-size="34" text-anchor="middle" fill="#eae3cd" opacity="0.035" transform="rotate(45 1024 192)">♠</text><text x="1152" y="192" font-size="34" text-anchor="middle" fill="#eae3cd" opacity="0.035" transform="rotate(45 1152 192)">♥</text><text x="1280" y="192" font-size="34" text-anchor="middle" fill="#eae3cd" opacity="0.035" transform="rotate(45 1280 192)">♦</text><text x="1408" y="192" font-size="34" text-anchor="middle" fill="#eae3cd" opacity="0.035" transform="rotate(45 1408 192)">♣</text><text x="1536" y="192" font-size="34" text-anchor="middle" fill="#eae3cd" opacity="0.035" transform="rotate(45 1536 192)">♠</text><text x="1664" y="192" font-size="34" text-anchor="middle" fill="#eae3cd" opacity="0.035" transform="rotate(45 1664 192)">♥</text><text x="1792" y="192" font-size="34" text-anchor="middle" fill="#eae3cd" opacity="0.035" transform="rotate(45 1792 192)">♦</text><text x="1920" y="192" font-size="34" text-anchor="middle" fill="#eae3cd" opacity="0.035" transform="rotate(45 1920 192)">♣</text><text x="2048" y="192" font-size="34" text-anchor="middle" fill="#eae3cd" opacity="0.035" transform="rotate(45 2048 192)">♠</text><text x="2176" y="192" font-size="34" text-anchor="middle" fill="#eae3cd" opacity="0.035" transform="rotate(45 2176 192)">♥</text><text x="2304" y="192" font-size="34" text-anchor="middle" fill="#eae3cd" opacity="0.035" transform="rotate(45 2304 192)">♦</text><text x="2432" y="192" font-size="34" text-anchor="middle" fill="#eae3cd" opacity="0.035" transform="rotate(45 2432 192)">♣</text><text x="2560" y="192" font-size="34" text-anchor="middle" fill="#eae3cd" opacity="0.035" transform="rotate(45 2560 192)">♠</text><text x="64" y="320" font-size="34" text-anchor="middle" fill="#eae3cd" opacity="0.035" transform="rotate(45 64 320)">♦</text><text x="192" y="320" font-size="34" text-anchor="middle" fill="#eae3cd" opacity="0.035" transform="rotate(45 192 320)">♣</text><text x="320" y="320" font-size="34" text-anchor="middle" fill="#eae3cd" opacity="0.035" transform="rotate(45 320 320)">♠</text><text x="448" y="320" font-size="34" text-anchor="middle" fill="#eae3cd" opacity="0.035" transform="rotate(45 448 320)">♥</text><text x="576" y="320" font-size="34" text-anchor="middle" fill="#eae3cd" opacity="0.035" transform="rotate(45 576 320)">♦</text><text x="704" y="320" font-size="34" text-anchor="middle" fill="#eae3cd" opacity="0.035" transform="rotate(45 704 320)">♣</text><text x="832" y="320" font-size="34" text-anchor="middle" fill="#eae3cd" opacity="0.035" transform="rotate(45 832 320)">♠</text><text x="960" y="320" font-size="34" text-anchor="middle" fill="#eae3cd" opacity="0.035" transform="rotate(45 960 320)">♥</text><text x="1088" y="320" font-size="34" text-anchor="middle" fill="#eae3cd" opacity="0.035" transform="rotate(45 1088 320)">♦</text><text x="1216" y="320" font-size="34" text-anchor="middle" fill="#eae3cd" opacity="0.035" transform="rotate(45 1216 320)">♣</text><text x="1344" y="320" font-size="34" text-anchor="middle" fill="#eae3cd" opacity="0.035" transform="rotate(45 1344 320)">♠</text><text x="1472" y="320" font-size="34" text-anchor="middle" fill="#eae3cd" opacity="0.035" transform="rotate(45 1472 320)">♥</text><text x="1600" y="320" font-size="34" text-anchor="middle" fill="#eae3cd" opacity="0.035" transform="rotate(45 1600 320)">♦</text><text x="1728" y="320" font-size="34" text-anchor="middle" fill="#eae3cd" opacity="0.035" transform="rotate(45 1728 320)">♣</text><text x="1856" y="320" font-size="34" text-anchor="middle" fill="#eae3cd" opacity="0.035" transform="rotate(45 1856 320)">♠</text><text x="1984" y="320" font-size="34" text-anchor="middle" fill="#eae3cd" opacity="0.035" transform="rotate(45 1984 320)">♥</text><text x="2112" y="320" font-size="34" text-anchor="middle" fill="#eae3cd" opacity="0.035" transform="rotate(45 2112 320)">♦</text><text x="2240" y="320" font-size="34" text-anchor="middle" fill="#eae3cd" opacity="0.035" transform="rotate(45 2240 320)">♣</text><text x="2368" y="320" font-size="34" text-anchor="middle" fill="#eae3cd" opacity="0.035" transform="rotate(45 2368 320)">♠</text><text x="2496" y="320" font-size="34" text-anchor="middle" fill="#eae3cd" opacity="0.035" transform="rotate(45 2496 320)">♥</text><text x="2624" y="320" font-size="34" text-anchor="middle" fill="#eae3cd" opacity="0.035" transform="rotate(45 2624 320)">♦</text><text x="128" y="448" font-size="34" text-anchor="middle" fill="#eae3cd" opacity="0.035" transform="rotate(45 128 448)">♣</text><text x="256" y="448" font-size="34" text-anchor="middle" fill="#eae3cd" opacity="0.035" transform="rotate(45 256 448)">♠</text><text x="384" y="448" font-size="34" text-anchor="middle" fill="#eae3cd" opacity="0.035" transform="rotate(45 384 448)">♥</text><text x="512" y="448" font-size="34" text-anchor="middle" fill="#eae3cd" opacity="0.035" transform="rotate(45 512 448)">♦</text><text x="640" y="448" font-size="34" text-anchor="middle" fill="#eae3cd" opacity="0.035" transform="rotate(45 640 448)">♣</text><text x="768" y="448" font-size="34" text-anchor="middle" fill="#eae3cd" opacity="0.035" transform="rotate(45 768 448)">♠</text><text x="896" y="448" font-size="34" text-anchor="middle" fill="#eae3cd" opacity="0.035" transform="rotate(45 896 448)">♥</text><text x="1024" y="448" font-size="34" text-anchor="middle" fill="#eae3cd" opacity="0.035" transform="rotate(45 1024 448)">♦</text><text x="1152" y="448" font-size="34" text-anchor="middle" fill="#eae3cd" opacity="0.035" transform="rotate(45 1152 448)">♣</text><text x="1280" y="448" font-size="34" text-anchor="middle" fill="#eae3cd" opacity="0.035" transform="rotate(45 1280 448)">♠</text><text x="1408" y="448" font-size="34" text-anchor="middle" fill="#eae3cd" opacity="0.035" transform="rotate(45 1408 448)">♥</text><text x="1536" y="448" font-size="34" text-anchor="middle" fill="#eae3cd" opacity="0.035" transform="rotate(45 1536 448)">♦</text><text x="1664" y="448" font-size="34" text-anchor="middle" fill="#eae3cd" opacity="0.035" transform="rotate(45 1664 448)">♣</text><text x="1792" y="448" font-size="34" text-anchor="middle" fill="#eae3cd" opacity="0.035" transform="rotate(45 1792 448)">♠</text><text x="1920" y="448" font-size="34" text-anchor="middle" fill="#eae3cd" opacity="0.035" transform="rotate(45 1920 448)">♥</text><text x="2048" y="448" font-size="34" text-anchor="middle" fill="#eae3cd" opacity="0.035" transform="rotate(45 2048 448)">♦</text><text x="2176" y="448" font-size="34" text-anchor="middle" fill="#eae3cd" opacity="0.035" transform="rotate(45 2176 448)">♣</text><text x="2304" y="448" font-size="34" text-anchor="middle" fill="#eae3cd" opacity="0.035" transform="rotate(45 2304 448)">♠</text><text x="2432" y="448" font-size="34" text-anchor="middle" fill="#eae3cd" opacity="0.035" transform="rotate(45 2432 448)">♥</text><text x="2560" y="448" font-size="34" text-anchor="middle" fill="#eae3cd" opacity="0.035" transform="rotate(45 2560 448)">♦</text><text x="64" y="576" font-size="34" text-anchor="middle" fill="#eae3cd" opacity="0.035" transform="rotate(45 64 576)">♠</text><text x="192" y="576" font-size="34" text-anchor="middle" fill="#eae3cd" opacity="0.035" transform="rotate(45 192 576)">♥</text><text x="320" y="576" font-size="34" text-anchor="middle" fill="#eae3cd" opacity="0.035" transform="rotate(45 320 576)">♦</text><text x="448" y="576" font-size="34" text-anchor="middle" fill="#eae3cd" opacity="0.035" transform="rotate(45 448 576)">♣</text><text x="576" y="576" font-size="34" text-anchor="middle" fill="#eae3cd" opacity="0.035" transform="rotate(45 576 576)">♠</text><text x="704" y="576" font-size="34" text-anchor="middle" fill="#eae3cd" opacity="0.035" transform="rotate(45 704 576)">♥</text><text x="832" y="576" font-size="34" text-anchor="middle" fill="#eae3cd" opacity="0.035" transform="rotate(45 832 576)">♦</text><text x="960" y="576" font-size="34" text-anchor="middle" fill="#eae3cd" opacity="0.035" transform="rotate(45 960 576)">♣</text><text x="1088" y="576" font-size="34" text-anchor="middle" fill="#eae3cd" opacity="0.035" transform="rotate(45 1088 576)">♠</text><text x="1216" y="576" font-size="34" text-anchor="middle" fill="#eae3cd" opacity="0.035" transform="rotate(45 1216 576)">♥</text><text x="1344" y="576" font-size="34" text-anchor="middle" fill="#eae3cd" opacity="0.035" transform="rotate(45 1344 576)">♦</text><text x="1472" y="576" font-size="34" text-anchor="middle" fill="#eae3cd" opacity="0.035" transform="rotate(45 1472 576)">♣</text><text x="1600" y="576" font-size="34" text-anchor="middle" fill="#eae3cd" opacity="0.035" transform="rotate(45 1600 576)">♠</text><text x="1728" y="576" font-size="34" text-anchor="middle" fill="#eae3cd" opacity="0.035" transform="rotate(45 1728 576)">♥</text><text x="1856" y="576" font-size="34" text-anchor="middle" fill="#eae3cd" opacity="0.035" transform="rotate(45 1856 576)">♦</text><text x="1984" y="576" font-size="34" text-anchor="middle" fill="#eae3cd" opacity="0.035" transform="rotate(45 1984 576)">♣</text><text x="2112" y="576" font-size="34" text-anchor="middle" fill="#eae3cd" opacity="0.035" transform="rotate(45 2112 576)">♠</text><text x="2240" y="576" font-size="34" text-anchor="middle" fill="#eae3cd" opacity="0.035" transform="rotate(45 2240 576)">♥</text><text x="2368" y="576" font-size="34" text-anchor="middle" fill="#eae3cd" opacity="0.035" transform="rotate(45 2368 576)">♦</text><text x="2496" y="576" font-size="34" text-anchor="middle" fill="#eae3cd" opacity="0.035" transform="rotate(45 2496 576)">♣</text><text x="2624" y="576" font-size="34" text-anchor="middle" fill="#eae3cd" opacity="0.035" transform="rotate(45 2624 576)">♠</text><text x="128" y="704" font-size="34" text-anchor="middle" fill="#eae3cd" opacity="0.035" transform="rotate(45 128 704)">♥</text><text x="256" y="704" font-size="34" text-anchor="middle" fill="#eae3cd" opacity="0.035" transform="rotate(45 256 704)">♦</text><text x="384" y="704" font-size="34" text-anchor="middle" fill="#eae3cd" opacity="0.035" transform="rotate(45 384 704)">♣</text><text x="512" y="704" font-size="34" text-anchor="middle" fill="#eae3cd" opacity="0.035" transform="rotate(45 512 704)">♠</text><text x="640" y="704" font-size="34" text-anchor="middle" fill="#eae3cd" opacity="0.035" transform="rotate(45 640 704)">♥</text><text x="768" y="704" font-size="34" text-anchor="middle" fill="#eae3cd" opacity="0.035" transform="rotate(45 768 704)">♦</text><text x="896" y="704" font-size="34" text-anchor="middle" fill="#eae3cd" opacity="0.035" transform="rotate(45 896 704)">♣</text><text x="1024" y="704" font-size="34" text-anchor="middle" fill="#eae3cd" opacity="0.035" transform="rotate(45 1024 704)">♠</text><text x="1152" y="704" font-size="34" text-anchor="middle" fill="#eae3cd" opacity="0.035" transform="rotate(45 1152 704)">♥</text><text x="1280" y="704" font-size="34" text-anchor="middle" fill="#eae3cd" opacity="0.035" transform="rotate(45 1280 704)">♦</text><text x="1408" y="704" font-size="34" text-anchor="middle" fill="#eae3cd" opacity="0.035" transform="rotate(45 1408 704)">♣</text><text x="1536" y="704" font-size="34" text-anchor="middle" fill="#eae3cd" opacity="0.035" transform="rotate(45 1536 704)">♠</text><text x="1664" y="704" font-size="34" text-anchor="middle" fill="#eae3cd" opacity="0.035" transform="rotate(45 1664 704)">♥</text><text x="1792" y="704" font-size="34" text-anchor="middle" fill="#eae3cd" opacity="0.035" transform="rotate(45 1792 704)">♦</text><text x="1920" y="704" font-size="34" text-anchor="middle" fill="#eae3cd" opacity="0.035" transform="rotate(45 1920 704)">♣</text><text x="2048" y="704" font-size="34" text-anchor="middle" fill="#eae3cd" opacity="0.035" transform="rotate(45 2048 704)">♠</text><text x="2176" y="704" font-size="34" text-anchor="middle" fill="#eae3cd" opacity="0.035" transform="rotate(45 2176 704)">♥</text><text x="2304" y="704" font-size="34" text-anchor="middle" fill="#eae3cd" opacity="0.035" transform="rotate(45 2304 704)">♦</text><text x="2432" y="704" font-size="34" text-anchor="middle" fill="#eae3cd" opacity="0.035" transform="rotate(45 2432 704)">♣</text><text x="2560" y="704" font-size="34" text-anchor="middle" fill="#eae3cd" opacity="0.035" transform="rotate(45 2560 704)">♠</text><text x="64" y="832" font-size="34" text-anchor="middle" fill="#eae3cd" opacity="0.035" transform="rotate(45 64 832)">♦</text><text x="192" y="832" font-size="34" text-anchor="middle" fill="#eae3cd" opacity="0.035" transform="rotate(45 192 832)">♣</text><text x="320" y="832" font-size="34" text-anchor="middle" fill="#eae3cd" opacity="0.035" transform="rotate(45 320 832)">♠</text><text x="448" y="832" font-size="34" text-anchor="middle" fill="#eae3cd" opacity="0.035" transform="rotate(45 448 832)">♥</text><text x="576" y="832" font-size="34" text-anchor="middle" fill="#eae3cd" opacity="0.035" transform="rotate(45 576 832)">♦</text><text x="704" y="832" font-size="34" text-anchor="middle" fill="#eae3cd" opacity="0.035" transform="rotate(45 704 832)">♣</text><text x="832" y="832" font-size="34" text-anchor="middle" fill="#eae3cd" opacity="0.035" transform="rotate(45 832 832)">♠</text><text x="960" y="832" font-size="34" text-anchor="middle" fill="#eae3cd" opacity="0.035" transform="rotate(45 960 832)">♥</text><text x="1088" y="832" font-size="34" text-anchor="middle" fill="#eae3cd" opacity="0.035" transform="rotate(45 1088 832)">♦</text><text x="1216" y="832" font-size="34" text-anchor="middle" fill="#eae3cd" opacity="0.035" transform="rotate(45 1216 832)">♣</text><text x="1344" y="832" font-size="34" text-anchor="middle" fill="#eae3cd" opacity="0.035" transform="rotate(45 1344 832)">♠</text><text x="1472" y="832" font-size="34" text-anchor="middle" fill="#eae3cd" opacity="0.035" transform="rotate(45 1472 832)">♥</text><text x="1600" y="832" font-size="34" text-anchor="middle" fill="#eae3cd" opacity="0.035" transform="rotate(45 1600 832)">♦</text><text x="1728" y="832" font-size="34" text-anchor="middle" fill="#eae3cd" opacity="0.035" transform="rotate(45 1728 832)">♣</text><text x="1856" y="832" font-size="34" text-anchor="middle" fill="#eae3cd" opacity="0.035" transform="rotate(45 1856 832)">♠</text><text x="1984" y="832" font-size="34" text-anchor="middle" fill="#eae3cd" opacity="0.035" transform="rotate(45 1984 832)">♥</text><text x="2112" y="832" font-size="34" text-anchor="middle" fill="#eae3cd" opacity="0.035" transform="rotate(45 2112 832)">♦</text><text x="2240" y="832" font-size="34" text-anchor="middle" fill="#eae3cd" opacity="0.035" transform="rotate(45 2240 832)">♣</text><text x="2368" y="832" font-size="34" text-anchor="middle" fill="#eae3cd" opacity="0.035" transform="rotate(45 2368 832)">♠</text><text x="2496" y="832" font-size="34" text-anchor="middle" fill="#eae3cd" opacity="0.035" transform="rotate(45 2496 832)">♥</text><text x="2624" y="832" font-size="34" text-anchor="middle" fill="#eae3cd" opacity="0.035" transform="rotate(45 2624 832)">♦</text><text x="128" y="960" font-size="34" text-anchor="middle" fill="#eae3cd" opacity="0.035" transform="rotate(45 128 960)">♣</text><text x="256" y="960" font-size="34" text-anchor="middle" fill="#eae3cd" opacity="0.035" transform="rotate(45 256 960)">♠</text><text x="384" y="960" font-size="34" text-anchor="middle" fill="#eae3cd" opacity="0.035" transform="rotate(45 384 960)">♥</text><text x="512" y="960" font-size="34" text-anchor="middle" fill="#eae3cd" opacity="0.035" transform="rotate(45 512 960)">♦</text><text x="640" y="960" font-size="34" text-anchor="middle" fill="#eae3cd" opacity="0.035" transform="rotate(45 640 960)">♣</text><text x="768" y="960" font-size="34" text-anchor="middle" fill="#eae3cd" opacity="0.035" transform="rotate(45 768 960)">♠</text><text x="896" y="960" font-size="34" text-anchor="middle" fill="#eae3cd" opacity="0.035" transform="rotate(45 896 960)">♥</text><text x="1024" y="960" font-size="34" text-anchor="middle" fill="#eae3cd" opacity="0.035" transform="rotate(45 1024 960)">♦</text><text x="1152" y="960" font-size="34" text-anchor="middle" fill="#eae3cd" opacity="0.035" transform="rotate(45 1152 960)">♣</text><text x="1280" y="960" font-size="34" text-anchor="middle" fill="#eae3cd" opacity="0.035" transform="rotate(45 1280 960)">♠</text><text x="1408" y="960" font-size="34" text-anchor="middle" fill="#eae3cd" opacity="0.035" transform="rotate(45 1408 960)">♥</text><text x="1536" y="960" font-size="34" text-anchor="middle" fill="#eae3cd" opacity="0.035" transform="rotate(45 1536 960)">♦</text><text x="1664" y="960" font-size="34" text-anchor="middle" fill="#eae3cd" opacity="0.035" transform="rotate(45 1664 960)">♣</text><text x="1792" y="960" font-size="34" text-anchor="middle" fill="#eae3cd" opacity="0.035" transform="rotate(45 1792 960)">♠</text><text x="1920" y="960" font-size="34" text-anchor="middle" fill="#eae3cd" opacity="0.035" transform="rotate(45 1920 960)">♥</text><text x="2048" y="960" font-size="34" text-anchor="middle" fill="#eae3cd" opacity="0.035" transform="rotate(45 2048 960)">♦</text><text x="2176" y="960" font-size="34" text-anchor="middle" fill="#eae3cd" opacity="0.035" transform="rotate(45 2176 960)">♣</text><text x="2304" y="960" font-size="34" text-anchor="middle" fill="#eae3cd" opacity="0.035" transform="rotate(45 2304 960)">♠</text><text x="2432" y="960" font-size="34" text-anchor="middle" fill="#eae3cd" opacity="0.035" transform="rotate(45 2432 960)">♥</text><text x="2560" y="960" font-size="34" text-anchor="middle" fill="#eae3cd" opacity="0.035" transform="rotate(45 2560 960)">♦</text><text x="64" y="1088" font-size="34" text-anchor="middle" fill="#eae3cd" opacity="0.035" transform="rotate(45 64 1088)">♠</text><text x="192" y="1088" font-size="34" text-anchor="middle" fill="#eae3cd" opacity="0.035" transform="rotate(45 192 1088)">♥</text><text x="320" y="1088" font-size="34" text-anchor="middle" fill="#eae3cd" opacity="0.035" transform="rotate(45 320 1088)">♦</text><text x="448" y="1088" font-size="34" text-anchor="middle" fill="#eae3cd" opacity="0.035" transform="rotate(45 448 1088)">♣</text><text x="576" y="1088" font-size="34" text-anchor="middle" fill="#eae3cd" opacity="0.035" transform="rotate(45 576 1088)">♠</text><text x="704" y="1088" font-size="34" text-anchor="middle" fill="#eae3cd" opacity="0.035" transform="rotate(45 704 1088)">♥</text><text x="832" y="1088" font-size="34" text-anchor="middle" fill="#eae3cd" opacity="0.035" transform="rotate(45 832 1088)">♦</text><text x="960" y="1088" font-size="34" text-anchor="middle" fill="#eae3cd" opacity="0.035" transform="rotate(45 960 1088)">♣</text><text x="1088" y="1088" font-size="34" text-anchor="middle" fill="#eae3cd" opacity="0.035" transform="rotate(45 1088 1088)">♠</text><text x="1216" y="1088" font-size="34" text-anchor="middle" fill="#eae3cd" opacity="0.035" transform="rotate(45 1216 1088)">♥</text><text x="1344" y="1088" font-size="34" text-anchor="middle" fill="#eae3cd" opacity="0.035" transform="rotate(45 1344 1088)">♦</text><text x="1472" y="1088" font-size="34" text-anchor="middle" fill="#eae3cd" opacity="0.035" transform="rotate(45 1472 1088)">♣</text><text x="1600" y="1088" font-size="34" text-anchor="middle" fill="#eae3cd" opacity="0.035" transform="rotate(45 1600 1088)">♠</text><text x="1728" y="1088" font-size="34" text-anchor="middle" fill="#eae3cd" opacity="0.035" transform="rotate(45 1728 1088)">♥</text><text x="1856" y="1088" font-size="34" text-anchor="middle" fill="#eae3cd" opacity="0.035" transform="rotate(45 1856 1088)">♦</text><text x="1984" y="1088" font-size="34" text-anchor="middle" fill="#eae3cd" opacity="0.035" transform="rotate(45 1984 1088)">♣</text><text x="2112" y="1088" font-size="34" text-anchor="middle" fill="#eae3cd" opacity="0.035" transform="rotate(45 2112 1088)">♠</text><text x="2240" y="1088" font-size="34" text-anchor="middle" fill="#eae3cd" opacity="0.035" transform="rotate(45 2240 1088)">♥</text><text x="2368" y="1088" font-size="34" text-anchor="middle" fill="#eae3cd" opacity="0.035" transform="rotate(45 2368 1088)">♦</text><text x="2496" y="1088" font-size="34" text-anchor="middle" fill="#eae3cd" opacity="0.035" transform="rotate(45 2496 1088)">♣</text><text x="2624" y="1088" font-size="34" text-anchor="middle" fill="#eae3cd" opacity="0.035" transform="rotate(45 2624 1088)">♠</text><text x="128" y="1216" font-size="34" text-anchor="middle" fill="#eae3cd" opacity="0.035" transform="rotate(45 128 1216)">♥</text><text x="256" y="1216" font-size="34" text-anchor="middle" fill="#eae3cd" opacity="0.035" transform="rotate(45 256 1216)">♦</text><text x="384" y="1216" font-size="34" text-anchor="middle" fill="#eae3cd" opacity="0.035" transform="rotate(45 384 1216)">♣</text><text x="512" y="1216" font-size="34" text-anchor="middle" fill="#eae3cd" opacity="0.035" transform="rotate(45 512 1216)">♠</text><text x="640" y="1216" font-size="34" text-anchor="middle" fill="#eae3cd" opacity="0.035" transform="rotate(45 640 1216)">♥</text><text x="768" y="1216" font-size="34" text-anchor="middle" fill="#eae3cd" opacity="0.035" transform="rotate(45 768 1216)">♦</text><text x="896" y="1216" font-size="34" text-anchor="middle" fill="#eae3cd" opacity="0.035" transform="rotate(45 896 1216)">♣</text><text x="1024" y="1216" font-size="34" text-anchor="middle" fill="#eae3cd" opacity="0.035" transform="rotate(45 1024 1216)">♠</text><text x="1152" y="1216" font-size="34" text-anchor="middle" fill="#eae3cd" opacity="0.035" transform="rotate(45 1152 1216)">♥</text><text x="1280" y="1216" font-size="34" text-anchor="middle" fill="#eae3cd" opacity="0.035" transform="rotate(45 1280 1216)">♦</text><text x="1408" y="1216" font-size="34" text-anchor="middle" fill="#eae3cd" opacity="0.035" transform="rotate(45 1408 1216)">♣</text><text x="1536" y="1216" font-size="34" text-anchor="middle" fill="#eae3cd" opacity="0.035" transform="rotate(45 1536 1216)">♠</text><text x="1664" y="1216" font-size="34" text-anchor="middle" fill="#eae3cd" opacity="0.035" transform="rotate(45 1664 1216)">♥</text><text x="1792" y="1216" font-size="34" text-anchor="middle" fill="#eae3cd" opacity="0.035" transform="rotate(45 1792 1216)">♦</text><text x="1920" y="1216" font-size="34" text-anchor="middle" fill="#eae3cd" opacity="0.035" transform="rotate(45 1920 1216)">♣</text><text x="2048" y="1216" font-size="34" text-anchor="middle" fill="#eae3cd" opacity="0.035" transform="rotate(45 2048 1216)">♠</text><text x="2176" y="1216" font-size="34" text-anchor="middle" fill="#eae3cd" opacity="0.035" transform="rotate(45 2176 1216)">♥</text><text x="2304" y="1216" font-size="34" text-anchor="middle" fill="#eae3cd" opacity="0.035" transform="rotate(45 2304 1216)">♦</text><text x="2432" y="1216" font-size="34" text-anchor="middle" fill="#eae3cd" opacity="0.035" transform="rotate(45 2432 1216)">♣</text><text x="2560" y="1216" font-size="34" text-anchor="middle" fill="#eae3cd" opacity="0.035" transform="rotate(45 2560 1216)">♠</text><text x="64" y="1344" font-size="34" text-anchor="middle" fill="#eae3cd" opacity="0.035" transform="rotate(45 64 1344)">♦</text><text x="192" y="1344" font-size="34" text-anchor="middle" fill="#eae3cd" opacity="0.035" transform="rotate(45 192 1344)">♣</text><text x="320" y="1344" font-size="34" text-anchor="middle" fill="#eae3cd" opacity="0.035" transform="rotate(45 320 1344)">♠</text><text x="448" y="1344" font-size="34" text-anchor="middle" fill="#eae3cd" opacity="0.035" transform="rotate(45 448 1344)">♥</text><text x="576" y="1344" font-size="34" text-anchor="middle" fill="#eae3cd" opacity="0.035" transform="rotate(45 576 1344)">♦</text><text x="704" y="1344" font-size="34" text-anchor="middle" fill="#eae3cd" opacity="0.035" transform="rotate(45 704 1344)">♣</text><text x="832" y="1344" font-size="34" text-anchor="middle" fill="#eae3cd" opacity="0.035" transform="rotate(45 832 1344)">♠</text><text x="960" y="1344" font-size="34" text-anchor="middle" fill="#eae3cd" opacity="0.035" transform="rotate(45 960 1344)">♥</text><text x="1088" y="1344" font-size="34" text-anchor="middle" fill="#eae3cd" opacity="0.035" transform="rotate(45 1088 1344)">♦</text><text x="1216" y="1344" font-size="34" text-anchor="middle" fill="#eae3cd" opacity="0.035" transform="rotate(45 1216 1344)">♣</text><text x="1344" y="1344" font-size="34" text-anchor="middle" fill="#eae3cd" opacity="0.035" transform="rotate(45 1344 1344)">♠</text><text x="1472" y="1344" font-size="34" text-anchor="middle" fill="#eae3cd" opacity="0.035" transform="rotate(45 1472 1344)">♥</text><text x="1600" y="1344" font-size="34" text-anchor="middle" fill="#eae3cd" opacity="0.035" transform="rotate(45 1600 1344)">♦</text><text x="1728" y="1344" font-size="34" text-anchor="middle" fill="#eae3cd" opacity="0.035" transform="rotate(45 1728 1344)">♣</text><text x="1856" y="1344" font-size="34" text-anchor="middle" fill="#eae3cd" opacity="0.035" transform="rotate(45 1856 1344)">♠</text><text x="1984" y="1344" font-size="34" text-anchor="middle" fill="#eae3cd" opacity="0.035" transform="rotate(45 1984 1344)">♥</text><text x="2112" y="1344" font-size="34" text-anchor="middle" fill="#eae3cd" opacity="0.035" transform="rotate(45 2112 1344)">♦</text><text x="2240" y="1344" font-size="34" text-anchor="middle" fill="#eae3cd" opacity="0.035" transform="rotate(45 2240 1344)">♣</text><text x="2368" y="1344" font-size="34" text-anchor="middle" fill="#eae3cd" opacity="0.035" transform="rotate(45 2368 1344)">♠</text><text x="2496" y="1344" font-size="34" text-anchor="middle" fill="#eae3cd" opacity="0.035" transform="rotate(45 2496 1344)">♥</text><text x="2624" y="1344" font-size="34" text-anchor="middle" fill="#eae3cd" opacity="0.035" transform="rotate(45 2624 1344)">♦</text><text x="128" y="1472" font-size="34" text-anchor="middle" fill="#eae3cd" opacity="0.035" transform="rotate(45 128 1472)">♣</text><text x="256" y="1472" font-size="34" text-anchor="middle" fill="#eae3cd" opacity="0.035" transform="rotate(45 256 1472)">♠</text><text x="384" y="1472" font-size="34" text-anchor="middle" fill="#eae3cd" opacity="0.035" transform="rotate(45 384 1472)">♥</text><text x="512" y="1472" font-size="34" text-anchor="middle" fill="#eae3cd" opacity="0.035" transform="rotate(45 512 1472)">♦</text><text x="640" y="1472" font-size="34" text-anchor="middle" fill="#eae3cd" opacity="0.035" transform="rotate(45 640 1472)">♣</text><text x="768" y="1472" font-size="34" text-anchor="middle" fill="#eae3cd" opacity="0.035" transform="rotate(45 768 1472)">♠</text><text x="896" y="1472" font-size="34" text-anchor="middle" fill="#eae3cd" opacity="0.035" transform="rotate(45 896 1472)">♥</text><text x="1024" y="1472" font-size="34" text-anchor="middle" fill="#eae3cd" opacity="0.035" transform="rotate(45 1024 1472)">♦</text><text x="1152" y="1472" font-size="34" text-anchor="middle" fill="#eae3cd" opacity="0.035" transform="rotate(45 1152 1472)">♣</text><text x="1280" y="1472" font-size="34" text-anchor="middle" fill="#eae3cd" opacity="0.035" transform="rotate(45 1280 1472)">♠</text><text x="1408" y="1472" font-size="34" text-anchor="middle" fill="#eae3cd" opacity="0.035" transform="rotate(45 1408 1472)">♥</text><text x="1536" y="1472" font-size="34" text-anchor="middle" fill="#eae3cd" opacity="0.035" transform="rotate(45 1536 1472)">♦</text><text x="1664" y="1472" font-size="34" text-anchor="middle" fill="#eae3cd" opacity="0.035" transform="rotate(45 1664 1472)">♣</text><text x="1792" y="1472" font-size="34" text-anchor="middle" fill="#eae3cd" opacity="0.035" transform="rotate(45 1792 1472)">♠</text><text x="1920" y="1472" font-size="34" text-anchor="middle" fill="#eae3cd" opacity="0.035" transform="rotate(45 1920 1472)">♥</text><text x="2048" y="1472" font-size="34" text-anchor="middle" fill="#eae3cd" opacity="0.035" transform="rotate(45 2048 1472)">♦</text><text x="2176" y="1472" font-size="34" text-anchor="middle" fill="#eae3cd" opacity="0.035" transform="rotate(45 2176 1472)">♣</text><text x="2304" y="1472" font-size="34" text-anchor="middle" fill="#eae3cd" opacity="0.035" transform="rotate(45 2304 1472)">♠</text><text x="2432" y="1472" font-size="34" text-anchor="middle" fill="#eae3cd" opacity="0.035" transform="rotate(45 2432 1472)">♥</text><text x="2560" y="1472" font-size="34" text-anchor="middle" fill="#eae3cd" opacity="0.035" transform="rotate(45 2560 1472)">♦</text><path d="M -200 1780 A 1720 1720 0 0 1 2760 1780" fill="none" stroke="#2e1a10" stroke-width="260" opacity="0.9"/><path d="M -200 1658 A 1650 1650 0 0 1 2760 1658" fill="none" stroke="#c9a227" stroke-width="6" opacity="0.75"/><path d="M -200 1646 A 1642 1642 0 0 1 2760 1646" fill="none" stroke="#c9a227" stroke-width="2" opacity="0.45"/><path d="M -200 1320 A 3300 3300 0 0 1 2760 1320" fill="none" stroke="#eae3cd" stroke-width="3" opacity="0.16" stroke-dasharray="26 20"/></svg>