<svg xmlns="http://www.w3.org/2000/svg" width="2560" height="1440" viewBox="0 0 2560 1440"><defs>
      <linearGradient id="bg" x1="0" y1="0" x2="0" y2="1">
        <stop offset="0%" stop-color="#06060d"/>
        <stop offset="70%" stop-color="#0a0a14"/>
        <stop offset="100%" stop-color="#141024"/>
      </linearGradient>
      <filter id="glow" x="-80%" y="-80%" width="260%" height="260%">
        <feGaussianBlur stdDeviation="10"/>
      </filter>
      <filter id="bigglow" x="-120%" y="-120%" width="340%" height="340%">
        <feGaussianBlur stdDeviation="26"/>
      </filter>
    </defs><rect width="2560" height="1440" fill="url(#bg)"/><circle cx="2505" cy="43" r="2.2" fill="#eaeaf2" opacity="0.72"/><circle cx="950" cy="27" r="1.2" fill="#eaeaf2" opacity="0.71"/><circle cx="2471" cy="348" r="1.0" fill="#eaeaf2" opacity="0.49"/><circle cx="607" cy="126" r="1.8" fill="#ffd166" opacity="0.52"/><circle cx="1278" cy="97" r="1.1" fill="#eaeaf2" opacity="0.77"/><circle cx="1474" cy="532" r="2.4" fill="#2de2e6" opacity="0.33"/><circle cx="1332" cy="420" r="1.3" fill="#ff2e88" opacity="0.43"/><circle cx="2016" cy="335" r="1.9" fill="#eaeaf2" opacity="0.58"/><circle cx="517" cy="162" r="2.2" fill="#eaeaf2" opacity="0.50"/><circle cx="439" cy="98" r="1.3" fill="#2de2e6" opacity="0.60"/><circle cx="558" cy="158" r="1.9" fill="#ff2e88" opacity="0.55"/><circle cx="1905" cy="618" r="1.2" fill="#2de2e6" opacity="0.70"/><circle cx="1160" cy="754" r="2.3" fill="#2de2e6" opacity="0.54"/><circle cx="2114" cy="533" r="2.5" fill="#eaeaf2" opacity="0.54"/><circle cx="1718" cy="60" r="2.1" fill="#2de2e6" opacity="0.27"/><circle cx="1593" cy="3" r="1.4" fill="#eaeaf2" opacity="0.27"/><circle cx="1323" cy="123" r="2.2" fill="#eaeaf2" opacity="0.53"/><circle cx="1718" cy="119" r="1.7" fill="#ff2e88" opacity="0.35"/><circle cx="392" cy="119" r="1.1" fill="#2de2e6" opacity="0.43"/><circle cx="533" cy="200" r="2.3" fill="#ff2e88" opacity="0.67"/><circle cx="2405" cy="49" r="1.1" fill="#2de2e6" opacity="0.38"/><circle cx="835" cy="287" r="1.6" fill="#ff2e88" opacity="0.34"/><circle cx="1039" cy="68" r="1.4" fill="#ff2e88" opacity="0.43"/><circle cx="473" cy="741" r="1.4" fill="#eaeaf2" opacity="0.63"/><circle cx="1424" cy="514" r="1.9" fill="#eaeaf2" opacity="0.40"/><circle cx="1678" cy="402" r="2.5" fill="#ff2e88" opacity="0.52"/><circle cx="537" cy="698" r="2.1" fill="#ffd166" opacity="0.74"/><circle cx="1559" cy="45" r="2.2" fill="#ffd166" opacity="0.71"/><circle cx="439" cy="13" r="1.8" fill="#2de2e6" opacity="0.31"/><circle cx="878" cy="81" r="2.1" fill="#2de2e6" opacity="0.28"/><circle cx="1351" cy="627" r="2.2" fill="#ffd166" opacity="0.67"/><circle cx="1827" cy="231" r="1.4" fill="#eaeaf2" opacity="0.75"/><circle cx="2472" cy="99" r="1.0" fill="#2de2e6" opacity="0.40"/><circle cx="623" cy="623" r="2.3" fill="#ff2e88" opacity="0.34"/><circle cx="1698" cy="374" r="2.1" fill="#2de2e6" opacity="0.77"/><circle cx="844" cy="61" r="1.7" fill="#eaeaf2" opacity="0.51"/><circle cx="1126" cy="564" r="2.1" fill="#eaeaf2" opacity="0.77"/><circle cx="1766" cy="307" r="1.4" fill="#eaeaf2" opacity="0.31"/><circle cx="2517" cy="239" r="1.5" fill="#ff2e88" opacity="0.67"/><circle cx="1381" cy="730" r="2.3" fill="#eaeaf2" opacity="0.40"/><circle cx="1629" cy="397" r="2.2" fill="#ffd166" opacity="0.65"/><circle cx="7" cy="355" r="2.4" fill="#eaeaf2" opacity="0.74"/><circle cx="442" cy="157" r="2.3" fill="#eaeaf2" opacity="0.55"/><circle cx="697" cy="75" r="2.3" fill="#ffd166" opacity="0.48"/><circle cx="68" cy="185" r="1.5" fill="#eaeaf2" opacity="0.35"/><circle cx="402" cy="715" r="1.5" fill="#eaeaf2" opacity="0.26"/><circle cx="228" cy="167" r="1.6" fill="#ff2e88" opacity="0.43"/><circle cx="2467" cy="748" r="1.9" fill="#2de2e6" opacity="0.72"/><circle cx="2497" cy="464" r="1.2" fill="#ff2e88" opacity="0.33"/><circle cx="1047" cy="399" r="2.2" fill="#2de2e6" opacity="0.77"/><circle cx="1816" cy="303" r="1.8" fill="#ff2e88" opacity="0.44"/><circle cx="1654" cy="464" r="2.5" fill="#ff2e88" opacity="0.57"/><circle cx="789" cy="424" r="2.5" fill="#ff2e88" opacity="0.28"/><circle cx="878" cy="434" r="1.8" fill="#ffd166" opacity="0.39"/><circle cx="884" cy="627" r="2.3" fill="#ff2e88" opacity="0.56"/><circle cx="614" cy="249" r="1.2" fill="#ffd166" opacity="0.46"/><circle cx="1320" cy="29" r="1.3" fill="#eaeaf2" opacity="0.49"/><circle cx="1825" cy="414" r="1.8" fill="#2de2e6" opacity="0.34"/><circle cx="792" cy="311" r="2.2" fill="#2de2e6" opacity="0.57"/><circle cx="1199" cy="254" r="2.2" fill="#ffd166" opacity="0.62"/><circle cx="2068" cy="40" r="1.7" fill="#ff2e88" opacity="0.69"/><circle cx="135" cy="90" r="2.3" fill="#ff2e88" opacity="0.42"/><circle cx="2211" cy="170" r="2.3" fill="#eaeaf2" opacity="0.50"/><circle cx="3" cy="188" r="2.1" fill="#eaeaf2" opacity="0.43"/><circle cx="1433" cy="668" r="1.7" fill="#ffd166" opacity="0.34"/><circle cx="1501" cy="749" r="1.4" fill="#ff2e88" opacity="0.60"/><circle cx="2458" cy="654" r="1.7" fill="#ffd166" opacity="0.36"/><circle cx="2103" cy="193" r="2.1" fill="#2de2e6" opacity="0.26"/><circle cx="739" cy="176" r="1.7" fill="#ffd166" opacity="0.34"/><circle cx="1344" cy="186" r="2.5" fill="#ff2e88" opacity="0.37"/><circle cx="1162" cy="347" r="2.3" fill="#eaeaf2" opacity="0.71"/><circle cx="1819" cy="521" r="2.2" fill="#ff2e88" opacity="0.54"/><circle cx="673" cy="208" r="1.7" fill="#eaeaf2" opacity="0.66"/><circle cx="2519" cy="384" r="2.6" fill="#ffd166" opacity="0.47"/><circle cx="1167" cy="527" r="1.4" fill="#2de2e6" opacity="0.76"/><circle cx="414" cy="554" r="2.3" fill="#2de2e6" opacity="0.29"/><circle cx="797" cy="298" r="1.1" fill="#2de2e6" opacity="0.55"/><circle cx="1671" cy="596" r="1.6" fill="#ff2e88" opacity="0.36"/><circle cx="1069" cy="658" r="2.2" fill="#2de2e6" opacity="0.43"/><circle cx="929" cy="598" r="2.1" fill="#ff2e88" opacity="0.56"/><circle cx="2234" cy="78" r="1.4" fill="#2de2e6" opacity="0.51"/><circle cx="2081" cy="792" r="1.4" fill="#ffd166" opacity="0.60"/><circle cx="532" cy="648" r="1.3" fill="#ff2e88" opacity="0.71"/><circle cx="967" cy="231" r="1.8" fill="#ff2e88" opacity="0.26"/><circle cx="1765" cy="78" r="2.1" fill="#eaeaf2" opacity="0.30"/><circle cx="1605" cy="216" r="1.4" fill="#eaeaf2" opacity="0.43"/><circle cx="2269" cy="413" r="1.3" fill="#2de2e6" opacity="0.68"/><circle cx="329" cy="169" r="1.9" fill="#eaeaf2" opacity="0.65"/><circle cx="1678" cy="584" r="1.1" fill="#eaeaf2" opacity="0.48"/><circle cx="1106" cy="631" r="1.8" fill="#ff2e88" opacity="0.28"/><circle cx="128" cy="517" r="2.0" fill="#ff2e88" opacity="0.46"/><circle cx="1564" cy="414" r="1.2" fill="#ff2e88" opacity="0.33"/><circle cx="204" cy="749" r="1.7" fill="#ff2e88" opacity="0.76"/><circle cx="434" cy="429" r="2.4" fill="#ff2e88" opacity="0.36"/><circle cx="1780" cy="74" r="2.2" fill="#eaeaf2" opacity="0.73"/><circle cx="1926" cy="153" r="1.8" fill="#2de2e6" opacity="0.75"/><circle cx="1023" cy="79" r="2.4" fill="#eaeaf2" opacity="0.42"/><circle cx="1554" cy="272" r="2.0" fill="#ff2e88" opacity="0.32"/><circle cx="1766" cy="399" r="2.5" fill="#ffd166" opacity="0.79"/><circle cx="1208" cy="556" r="2.5" fill="#ffd166" opacity="0.52"/><circle cx="2203" cy="454" r="1.7" fill="#2de2e6" opacity="0.59"/><circle cx="556" cy="323" r="1.2" fill="#2de2e6" opacity="0.53"/><circle cx="647" cy="534" r="2.0" fill="#ffd166" opacity="0.46"/><circle cx="2215" cy="361" r="1.9" fill="#ffd166" opacity="0.52"/><circle cx="82" cy="145" r="2.1" fill="#eaeaf2" opacity="0.45"/><circle cx="947" cy="638" r="1.4" fill="#2de2e6" opacity="0.55"/><circle cx="2268" cy="474" r="2.0" fill="#ff2e88" opacity="0.42"/><circle cx="1802" cy="341" r="1.5" fill="#ff2e88" opacity="0.41"/><circle cx="91" cy="79" r="1.7" fill="#ff2e88" opacity="0.28"/><circle cx="1676" cy="216" r="1.6" fill="#2de2e6" opacity="0.78"/><circle cx="1303" cy="445" r="1.1" fill="#ff2e88" opacity="0.51"/><circle cx="1952" cy="188" r="1.9" fill="#2de2e6" opacity="0.45"/><circle cx="844" cy="196" r="2.1" fill="#ff2e88" opacity="0.68"/><circle cx="104" cy="530" r="1.4" fill="#eaeaf2" opacity="0.62"/><circle cx="660" cy="300" r="2.5" fill="#ff2e88" opacity="0.37"/><circle cx="1317" cy="681" r="1.8" fill="#2de2e6" opacity="0.30"/><circle cx="1364" cy="300" r="2.1" fill="#ff2e88" opacity="0.41"/><circle cx="323" cy="187" r="2.4" fill="#2de2e6" opacity="0.33"/><circle cx="1030" cy="259" r="2.1" fill="#ff2e88" opacity="0.27"/><circle cx="2332" cy="422" r="1.2" fill="#ffd166" opacity="0.59"/><circle cx="2068" cy="241" r="2.0" fill="#eaeaf2" opacity="0.35"/><circle cx="2367" cy="110" r="1.1" fill="#ffd166" opacity="0.30"/><circle cx="2236" cy="41" r="1.9" fill="#2de2e6" opacity="0.32"/><circle cx="1424" cy="660" r="1.9" fill="#2de2e6" opacity="0.27"/><circle cx="232" cy="272" r="1.9" fill="#eaeaf2" opacity="0.71"/><circle cx="500" cy="195" r="1.6" fill="#eaeaf2" opacity="0.33"/><circle cx="365" cy="359" r="1.3" fill="#eaeaf2" opacity="0.26"/><circle cx="732" cy="101" r="2.2" fill="#eaeaf2" opacity="0.71"/><circle cx="2375" cy="77" r="1.9" fill="#eaeaf2" opacity="0.39"/><circle cx="2307" cy="283" r="2.6" fill="#ffd166" opacity="0.48"/><circle cx="2164" cy="377" r="1.9" fill="#2de2e6" opacity="0.72"/><circle cx="2390" cy="595" r="2.4" fill="#2de2e6" opacity="0.66"/><circle cx="2155" cy="742" r="2.5" fill="#ff2e88" opacity="0.27"/><circle cx="2361" cy="517" r="2.2" fill="#eaeaf2" opacity="0.47"/><circle cx="2075" cy="529" r="2.3" fill="#ffd166" opacity="0.77"/><circle cx="2064" cy="704" r="2.0" fill="#ff2e88" opacity="0.26"/><circle cx="1041" cy="687" r="1.4" fill="#ffd166" opacity="0.27"/><circle cx="820" cy="95" r="2.5" fill="#ffd166" opacity="0.70"/><circle cx="2362" cy="725" r="1.2" fill="#ff2e88" opacity="0.47"/><circle cx="1501" cy="97" r="1.7" fill="#ffd166" opacity="0.60"/><circle cx="1843" cy="619" r="2.2" fill="#ff2e88" opacity="0.55"/><circle cx="905" cy="206" r="1.4" fill="#ff2e88" opacity="0.29"/><circle cx="798" cy="606" r="1.5" fill="#ff2e88" opacity="0.75"/><circle cx="1983" cy="637" r="2.4" fill="#eaeaf2" opacity="0.56"/><circle cx="2025" cy="83" r="2.2" fill="#ff2e88" opacity="0.79"/><circle cx="752" cy="513" r="1.2" fill="#ff2e88" opacity="0.45"/><circle cx="1602" cy="722" r="2.2" fill="#ffd166" opacity="0.28"/><circle cx="2000" cy="627" r="1.3" fill="#2de2e6" opacity="0.79"/><circle cx="554" cy="144" r="1.1" fill="#ffd166" opacity="0.27"/><circle cx="652" cy="735" r="2.1" fill="#eaeaf2" opacity="0.78"/><circle cx="989" cy="716" r="2.3" fill="#ffd166" opacity="0.27"/><circle cx="1875" cy="276" r="1.7" fill="#2de2e6" opacity="0.79"/><circle cx="1823" cy="96" r="1.9" fill="#eaeaf2" opacity="0.58"/><circle cx="2149" cy="466" r="1.9" fill="#ffd166" opacity="0.76"/><circle cx="836" cy="609" r="2.5" fill="#eaeaf2" opacity="0.28"/><circle cx="2416" cy="388" r="1.3" fill="#ff2e88" opacity="0.59"/><circle cx="111" cy="707" r="1.0" fill="#2de2e6" opacity="0.77"/><circle cx="434" cy="487" r="1.1" fill="#eaeaf2" opacity="0.76"/><circle cx="851" cy="588" r="2.4" fill="#ffd166" opacity="0.38"/><circle cx="402" cy="373" r="1.6" fill="#ffd166" opacity="0.33"/><circle cx="341" cy="772" r="1.2" fill="#2de2e6" opacity="0.61"/><circle cx="1978" cy="31" r="2.0" fill="#eaeaf2" opacity="0.33"/><circle cx="472" cy="380" r="1.4" fill="#2de2e6" opacity="0.67"/><circle cx="1432" cy="658" r="1.6" fill="#ff2e88" opacity="0.44"/><circle cx="763" cy="527" r="1.8" fill="#ffd166" opacity="0.45"/><circle cx="761" cy="424" r="1.8" fill="#ffd166" opacity="0.70"/><circle cx="458" cy="332" r="1.7" fill="#ff2e88" opacity="0.28"/><circle cx="2419" cy="173" r="2.4" fill="#ffd166" opacity="0.41"/><circle cx="2351" cy="481" r="2.1" fill="#eaeaf2" opacity="0.26"/><circle cx="1884" cy="320" r="1.1" fill="#ff2e88" opacity="0.61"/><circle cx="2466" cy="724" r="1.6" fill="#eaeaf2" opacity="0.55"/><circle cx="1432" cy="585" r="2.5" fill="#2de2e6" opacity="0.41"/><circle cx="1814" cy="122" r="1.5" fill="#ffd166" opacity="0.44"/><circle cx="598" cy="364" r="1.4" fill="#eaeaf2" opacity="0.34"/><circle cx="1992" cy="617" r="1.6" fill="#eaeaf2" opacity="0.48"/><circle cx="1750" cy="282" r="1.9" fill="#2de2e6" opacity="0.65"/><circle cx="2172" cy="32" r="2.3" fill="#2de2e6" opacity="0.38"/><circle cx="976" cy="355" r="1.8" fill="#eaeaf2" opacity="0.69"/><circle cx="44" cy="722" r="1.6" fill="#eaeaf2" opacity="0.62"/><circle cx="1923" cy="455" r="1.3" fill="#ffd166" opacity="0.38"/><text x="563" y="749" font-size="210" text-anchor="middle" fill="#2de2e6" filter="url(#bigglow)" opacity="0.85">♦</text><text x="563" y="749" font-size="210" text-anchor="middle" fill="none" stroke="#2de2e6" stroke-width="4" filter="url(#glow)">♦</text><text x="563" y="749" font-size="210" text-anchor="middle" fill="#0a0a14" stroke="#ffffff" stroke-width="1.4" opacity="0.9">♦</text><text x="1178" y="576" font-size="300" text-anchor="middle" fill="#ff2e88" filter="url(#bigglow)" opacity="0.85">♠</text><text x="1178" y="576" font-size="300" text-anchor="middle" fill="none" stroke="#ff2e88" stroke-width="4" filter="url(#glow)">♠</text><text x="1178" y="576" font-size="300" text-anchor="middle" fill="#0a0a14" stroke="#ffffff" stroke-width="1.4" opacity="0.9">♠</text><text x="1741" y="806" font-size="190" text-anchor="middle" fill="#ff2e88" filter="url(#bigglow)" opacity="0.85">♥</text><text x="1741" y="806" font-size="190" text-anchor="middle" fill="none" stroke="#ff2e88" stroke-width="4" filter="url(#glow)">♥</text><text x="1741" y="806" font-size="190" text-anchor="middle" fill="#0a0a14" stroke="#ffffff" stroke-width="1.4" opacity="0.9">♥</text><text x="2150" y="547" font-size="150" text-anchor="middle" fill="#ffd166" filter="url(#bigglow)" opacity="0.85">♣</text><text x="2150" y="547" font-size="150" text-anchor="middle" fill="none" stroke="#ffd166" stroke-width="4" filter="url(#glow)">♣</text><text x="2150" y="547" font-size="150" text-anchor="middle" fill="#0a0a14" stroke="#ffffff" stroke-width="1.4" opacity="0.9">♣</text><circle cx="20" cy="1330" r="5" fill="#3a3550" opacity="0.5"/><circle cx="60" cy="1330" r="9" fill="#ffd166" filter="url(#glow)" opacity="0.8"/><circle cx="60" cy="1330" r="5" fill="#ffd166" opacity="0.95"/><circle cx="100" cy="1330" r="9" fill="#ffd166" filter="url(#glow)" opacity="0.8"/><circle cx="100" cy="1330" r="5" fill="#ffd166" opacity="0.95"/><circle cx="140" cy="1330" r="5" fill="#3a3550" opacity="0.5"/><circle cx="180" cy="1330" r="9" fill="#ffd166" filter="url(#glow)" opacity="0.8"/><circle cx="180" cy="1330" r="5" fill="#ffd166" opacity="0.95"/><circle cx="220" cy="1330" r="9" fill="#ffd166" filter="url(#glow)" opacity="0.8"/><circle cx="220" cy="1330" r="5" fill="#ffd166" opacity="0.95"/><circle cx="260" cy="1330" r="5" fill="#3a3550" opacity="0.5"/><circle cx="300" cy="1330" r="9" fill="#ffd166" filter="url(#glow)" opacity="0.8"/><circle cx="300" cy="1330" r="5" fill="#ffd166" opacity="0.95"/><circle cx="340" cy="1330" r="9" fill="#ffd166" filter="url(#glow)" opacity="0.8"/><circle cx="340" cy="1330" r="5" fill="#ffd166" opacity="0.95"/><circle cx="380" cy="1330" r="5" fill="#3a3550" opacity="0.5"/><circle cx="420" cy="1330" r="9" fill="#ffd166" filter="url(#glow)" opacity="0.8"/><circle cx="420" cy="1330" r="5" fill="#ffd166" opacity="0.95"/><circle cx="460" cy="1330" r="9" fill="#ffd166" filter="url(#glow)" opacity="0.8"/><circle cx="460" cy="1330" r="5" fill="#ffd166" opacity="0.95"/><circle cx="500" cy="1330" r="5" fill="#3a3550" opacity="0.5"/><circle cx="540" cy="1330" r="9" fill="#ffd166" filter="url(#glow)" opacity="0.8"/><circle cx="540" cy="1330" r="5" fill="#ffd166" opacity="0.95"/><circle cx="580" cy="1330" r="9" fill="#ffd166" filter="url(#glow)" opacity="0.8"/><circle cx="580" cy="1330" r="5" fill="#ffd166" opacity="0.95"/><circle cx="620" cy="1330" r="5" fill="#3a3550" opacity="0.5"/><circle cx="660" cy="1330" r="9" fill="#ffd166" filter="url(#glow)" opacity="0.8"/><circle cx="660" cy="1330" r="5" fill="#ffd166" opacity="0.95"/><circle cx="700" cy="1330" r="9" fill="#ffd166" filter="url(#glow)" opacity="0.8"/><circle cx="700" cy="1330" r="5" fill="#ffd166" opacity="0.95"/><circle cx="740" cy="1330" r="5" fill="#3a3550" opacity="0.5"/><circle cx="780" cy="1330" r="9" fill="#ffd166" filter="url(#glow)" opacity="0.8"/><circle cx="780" cy="1330" r="5" fill="#ffd166" opacity="0.95"/><circle cx="820" cy="1330" r="9" fill="#ffd166" filter="url(#glow)" opacity="0.8"/><circle cx="820" cy="1330" r="5" fill="#ffd166" opacity="0.95"/><circle cx="860" cy="1330" r="5" fill="#3a3550" opacity="0.5"/><circle cx="900" cy="1330" r="9" fill="#ffd166" filter="url(#glow)" opacity="0.8"/><circle cx="900" cy="1330" r="5" fill="#ffd166" opacity="0.95"/><circle cx="940" cy="1330" r="9" fill="#ffd166" filter="url(#glow)" opacity="0.8"/><circle cx="940" cy="1330" r="5" fill="#ffd166" opacity="0.95"/><circle cx="980" cy="1330" r="5" fill="#3a3550" opacity="0.5"/><circle cx="1020" cy="1330" r="9" fill="#ffd166" filter="url(#glow)" opacity="0.8"/><circle cx="1020" cy="1330" r="5" fill="#ffd166" opacity="0.95"/><circle cx="1060" cy="1330" r="9" fill="#ffd166" filter="url(#glow)" opacity="0.8"/><circle cx="1060" cy="1330" r="5" fill="#ffd166" opacity="0.95"/><circle cx="1100" cy="1330" r="5" fill="#3a3550" opacity="0.5"/><circle cx="1140" cy="1330" r="9" fill="#ffd166" filter="url(#glow)" opacity="0.8"/><circle cx="1140" cy="1330" r="5" fill="#ffd166" opacity="0.95"/><circle cx="1180" cy="1330" r="9" fill="#ffd166" filter="url(#glow)" opacity="0.8"/><circle cx="1180" cy="1330" r="5" fill="#ffd166" opacity="0.95"/><circle cx="1220" cy="1330" r="5" fill="#3a3550" opacity="0.5"/><circle cx="1260" cy="1330" r="9" fill="#ffd166" filter="url(#glow)" opacity="0.8"/><circle cx="1260" cy="1330" r="5" fill="#ffd166" opacity="0.95"/><circle cx="1300" cy="1330" r="9" fill="#ffd166" filter="url(#glow)" opacity="0.8"/><circle cx="1300" cy="1330" r="5" fill="#ffd166" opacity="0.95"/><circle cx="1340" cy="1330" r="5" fill="#3a3550" opacity="0.5"/><circle cx="1380" cy="1330" r="9" fill="#ffd166" filter="url(#glow)" opacity="0.8"/><circle cx="1380" cy="1330" r="5" fill="#ffd166" opacity="0.95"/><circle cx="1420" cy="1330" r="9" fill="#ffd166" filter="url(#glow)" opacity="0.8"/><circle cx="1420" cy="1330" r="5" fill="#ffd166" opacity="0.95"/><circle cx="1460" cy="1330" r="5" fill="#3a3550" opacity="0.5"/><circle cx="1500" cy="1330" r="9" fill="#ffd166" filter="url(#glow)" opacity="0.8"/><circle cx="1500" cy="1330" r="5" fill="#ffd166" opacity="0.95"/><circle cx="1540" cy="1330" r="9" fill="#ffd166" filter="url(#glow)" opacity="0.8"/><circle cx="1540" cy="1330" r="5" fill="#ffd166" opacity="0.95"/><circle cx="1580" cy="1330" r="5" fill="#3a3550" opacity="0.5"/><circle cx="1620" cy="1330" r="9" fill="#ffd166" filter="url(#glow)" opacity="0.8"/><circle cx="1620" cy="1330" r="5" fill="#ffd166" opacity="0.95"/><circle cx="1660" cy="1330" r="9" fill="#ffd166" filter="url(#glow)" opacity="0.8"/><circle cx="1660" cy="1330" r="5" fill="#ffd166" opacity="0.95"/><circle cx="1700" cy="1330" r="5" fill="#3a3550" opacity="0.5"/><circle cx="1740" cy="1330" r="9" fill="#ffd166" filter="url(#glow)" opacity="0.8"/><circle cx="1740" cy="1330" r="5" fill="#ffd166" opacity="0.95"/><circle cx="1780" cy="1330" r="9" fill="#ffd166" filter="url(#glow)" opacity="0.8"/><circle cx="1780" cy="1330" r="5" fill="#ffd166" opacity="0.95"/><circle cx="1820" cy="1330" r="5" fill="#3a3550" opacity="0.5"/><circle cx="1860" cy="1330" r="9" fill="#ffd166" filter="url(#glow)" opacity="0.8"/><circle cx="1860" cy="1330" r="5" fill="#ffd166" opacity="0.95"/><circle cx="1900" cy="1330" r="9" fill="#ffd166" filter="url(#glow)" opacity="0.8"/><circle cx="1900" cy="1330" r="5" fill="#ffd166" opacity="0.95"/><circle cx="1940" cy="1330" r="5" fill="#3a3550" opacity="0.5"/><circle cx="1980" cy="1330" r="9" fill="#ffd166" filter="url(#glow)" opacity="0.8"/><circle cx="1980" cy="1330" r="5" fill="#ffd166" opacity="0.95"/><circle cx="2020" cy="1330" r="9" fill="#ffd166" filter="url(#glow)" opacity="0.8"/><circle cx="2020" cy="1330" r="5" fill="#ffd166" opacity="0.95"/><circle cx="2060" cy="1330" r="5" fill="#3a3550" opacity="0.5"/><circle cx="2100" cy="1330" r="9" fill="#ffd166" filter="url(#glow)" opacity="0.8"/><circle cx="2100" cy="1330" r="5" fill="#ffd166" opacity="0.95"/><circle cx="2140" cy="1330" r="9" fill="#ffd166" filter="url(#glow)" opacity="0.8"/><circle cx="2140" cy="1330" r="5" fill="#ffd166" opacity="0.95"/><circle cx="2180" cy="1330" r="5" fill="#3a3550" opacity="0.5"/><circle cx="2220" cy="1330" r="9" fill="#ffd166" filter="url(#glow)" opacity="0.8"/><circle cx="2220" cy="1330" r="5" fill="#ffd166" opacity="0.95"/><circle cx="2260" cy="1330" r="9" fill="#ffd166" filter="url(#glow)" opacity="0.8"/><circle cx="2260" cy="1330" r="5" fill="#ffd166" opacity="0.95"/><circle cx="2300" cy="1330" r="5" fill="#3a3550" opacity="0.5"/><circle cx="2340" cy="1330" r="9" fill="#ffd166" filter="url(#glow)" opacity="0.8"/><circle cx="2340" cy="1330" r="5" fill="#ffd166" opacity="0.95"/><circle cx="2380" cy="1330" r="9" fill="#ffd166" filter="url(#glow)" opacity="0.8"/><circle cx="2380" cy="1330" r="5" fill="#ffd166" opacity="0.95"/><circle cx="2420" cy="1330" r="5" fill="#3a3550" opacity="0.5"/><circle cx="2460" cy="1330" r="9" fill="#ffd166" filter="url(#glow)" opacity="0.8"/><circle cx="2460" cy="1330" r="5" fill="#ffd166" opacity="0.95"/><circle cx="2500" cy="1330" r="9" fill="#ffd166" filter="url(#glow)" opacity="0.8"/><circle cx="2500" cy="1330" r="5" fill="#ffd166" opacity="0.95"/><circle cx="2540" cy="1330" r="5" fill="#3a3550" opacity="0.5"/><circle cx="20" cy="1370" r="9" fill="#ffd166" filter="url(#glow)" opacity="0.8"/><circle cx="20" cy="1370" r="5" fill="#ffd166" opacity="0.95"/><circle cx="60" cy="1370" r="9" fill="#ffd166" filter="url(#glow)" opacity="0.8"/><circle cx="60" cy="1370" r="5" fill="#ffd166" opacity="0.95"/><circle cx="100" cy="1370" r="5" fill="#3a3550" opacity="0.5"/><circle cx="140" cy="1370" r="9" fill="#ffd166" filter="url(#glow)" opacity="0.8"/><circle cx="140" cy="1370" r="5" fill="#ffd166" opacity="0.95"/><circle cx="180" cy="1370" r="9" fill="#ffd166" filter="url(#glow)" opacity="0.8"/><circle cx="180" cy="1370" r="5" fill="#ffd166" opacity="0.95"/><circle cx="220" cy="1370" r="5" fill="#3a3550" opacity="0.5"/><circle cx="260" cy="1370" r="9" fill="#ffd166" filter="url(#glow)" opacity="0.8"/><circle cx="260" cy="1370" r="5" fill="#ffd166" opacity="0.95"/><circle cx="300" cy="1370" r="9" fill="#ffd166" filter="url(#glow)" opacity="0.8"/><circle cx="300" cy="1370" r="5" fill="#ffd166" opacity="0.95"/><circle cx="340" cy="1370" r="5" fill="#3a3550" opacity="0.5"/><circle cx="380" cy="1370" r="9" fill="#ffd166" filter="url(#glow)" opacity="0.8"/><circle cx="380" cy="1370" r="5" fill="#ffd166" opacity="0.95"/><circle cx="420" cy="1370" r="9" fill="#ffd166" filter="url(#glow)" opacity="0.8"/><circle cx="420" cy="1370" r="5" fill="#ffd166" opacity="0.95"/><circle cx="460" cy="1370" r="5" fill="#3a3550" opacity="0.5"/><circle cx="500" cy="1370" r="9" fill="#ffd166" filter="url(#glow)" opacity="0.8"/><circle cx="500" cy="1370" r="5" fill="#ffd166" opacity="0.95"/><circle cx="540" cy="1370" r="9" fill="#ffd166" filter="url(#glow)" opacity="0.8"/><circle cx="540" cy="1370" r="5" fill="#ffd166" opacity="0.95"/><circle cx="580" cy="1370" r="5" fill="#3a3550" opacity="0.5"/><circle cx="620" cy="1370" r="9" fill="#ffd166" filter="url(#glow)" opacity="0.8"/><circle cx="620" cy="1370" r="5" fill="#ffd166" opacity="0.95"/><circle cx="660" cy="1370" r="9" fill="#ffd166" filter="url(#glow)" opacity="0.8"/><circle cx="660" cy="1370" r="5" fill="#ffd166" opacity="0.95"/><circle cx="700" cy="1370" r="5" fill="#3a3550" opacity="0.5"/><circle cx="740" cy="1370" r="9" fill="#ffd166" filter="url(#glow)" opacity="0.8"/><circle cx="740" cy="1370" r="5" fill="#ffd166" opacity="0.95"/><circle cx="780" cy="1370" r="9" fill="#ffd166" filter="url(#glow)" opacity="0.8"/><circle cx="780" cy="1370" r="5" fill="#ffd166" opacity="0.95"/><circle cx="820" cy="1370" r="5" fill="#3a3550" opacity="0.5"/><circle cx="860" cy="1370" r="9" fill="#ffd166" filter="url(#glow)" opacity="0.8"/><circle cx="860" cy="1370" r="5" fill="#ffd166" opacity="0.95"/><circle cx="900" cy="1370" r="9" fill="#ffd166" filter="url(#glow)" opacity="0.8"/><circle cx="900" cy="1370" r="5" fill="#ffd166" opacity="0.95"/><circle cx="940" cy="1370" r="5" fill="#3a3550" opacity="0.5"/><circle cx="980" cy="1370" r="9" fill="#ffd166" filter="url(#glow)" opacity="0.8"/><circle cx="980" cy="1370" r="5" fill="#ffd166" opacity="0.95"/><circle cx="1020" cy="1370" r="9" fill="#ffd166" filter="url(#glow)" opacity="0.8"/><circle cx="1020" cy="1370" r="5" fill="#ffd166" opacity="0.95"/><circle cx="1060" cy="1370" r="5" fill="#3a3550" opacity="0.5"/><circle cx="1100" cy="1370" r="9" fill="#ffd166" filter="url(#glow)" opacity="0.8"/><circle cx="1100" cy="1370" r="5" fill="#ffd166" opacity="0.95"/><circle cx="1140" cy="1370" r="9" fill="#ffd166" filter="url(#glow)" opacity="0.8"/><circle cx="1140" cy="1370" r="5" fill="#ffd166" opacity="0.95"/><circle cx="1180" cy="1370" r="5" fill="#3a3550" opacity="0.5"/><circle cx="1220" cy="1370" r="9" fill="#ffd166" filter="url(#glow)" opacity="0.8"/><circle cx="1220" cy="1370" r="5" fill="#ffd166" opacity="0.95"/><circle cx="1260" cy="1370" r="9" fill="#ffd166" filter="url(#glow)" opacity="0.8"/><circle cx="1260" cy="1370" r="5" fill="#ffd166" opacity="0.95"/><circle cx="1300" cy="1370" r="5" fill="#3a3550" opacity="0.5"/><circle cx="1340" cy="1370" r="9" fill="#ffd166" filter="url(#glow)" opacity="0.8"/><circle cx="1340" cy="1370" r="5" fill="#ffd166" opacity="0.95"/><circle cx="1380" cy="1370" r="9" fill="#ffd166" filter="url(#glow)" opacity="0.8"/><circle cx="1380" cy="1370" r="5" fill="#ffd166" opacity="0.95"/><circle cx="1420" cy="1370" r="5" fill="#3a3550" opacity="0.5"/><circle cx="1460" cy="1370" r="9" fill="#ffd166" filter="url(#glow)" opacity="0.8"/><circle cx="1460" cy="1370" r="5" fill="#ffd166" opacity="0.95"/><circle cx="1500" cy="1370" r="9" fill="#ffd166" filter="url(#glow)" opacity="0.8"/><circle cx="1500" cy="1370" r="5" fill="#ffd166" opacity="0.95"/><circle cx="1540" cy="1370" r="5" fill="#3a3550" opacity="0.5"/><circle cx="1580" cy="1370" r="9" fill="#ffd166" filter="url(#glow)" opacity="0.8"/><circle cx="1580" cy="1370" r="5" fill="#ffd166" opacity="0.95"/><circle cx="1620" cy="1370" r="9" fill="#ffd166" filter="url(#glow)" opacity="0.8"/><circle cx="1620" cy="1370" r="5" fill="#ffd166" opacity="0.95"/><circle cx="1660" cy="1370" r="5" fill="#3a3550" opacity="0.5"/><circle cx="1700" cy="1370" r="9" fill="#ffd166" filter="url(#glow)" opacity="0.8"/><circle cx="1700" cy="1370" r="5" fill="#ffd166" opacity="0.95"/><circle cx="1740" cy="1370" r="9" fill="#ffd166" filter="url(#glow)" opacity="0.8"/><circle cx="1740" cy="1370" r="5" fill="#ffd166" opacity="0.95"/><circle cx="1780" cy="1370" r="5" fill="#3a3550" opacity="0.5"/><circle cx="1820" cy="1370" r="9" fill="#ffd166" filter="url(#glow)" opacity="0.8"/><circle cx="1820" cy="1370" r="5" fill="#ffd166" opacity="0.95"/><circle cx="1860" cy="1370" r="9" fill="#ffd166" filter="url(#glow)" opacity="0.8"/><circle cx="1860" cy="1370" r="5" fill="#ffd166" opacity="0.95"/><circle cx="1900" cy="1370" r="5" fill="#3a3550" opacity="0.5"/><circle cx="1940" cy="1370" r="9" fill="#ffd166" filter="url(#glow)" opacity="0.8"/><circle cx="1940" cy="1370" r="5" fill="#ffd166" opacity="0.95"/><circle cx="1980" cy="1370" r="9" fill="#ffd166" filter="url(#glow)" opacity="0.8"/><circle cx="1980" cy="1370" r="5" fill="#ffd166" opacity="0.95"/><circle cx="2020" cy="1370" r="5" fill="#3a3550" opacity="0.5"/><circle cx="2060" cy="1370" r="9" fill="#ffd166" filter="url(#glow)" opacity="0.8"/><circle cx="2060" cy="1370" r="5" fill="#ffd166" opacity="0.95"/><circle cx="2100" cy="1370" r="9" fill="#ffd166" filter="url(#glow)" opacity="0.8"/><circle cx="2100" cy="1370" r="5" fill="#ffd166" opacity="0.95"/><circle cx="2140" cy="1370" r="5" fill="#3a3550" opacity="0.5"/><circle cx="2180" cy="1370" r="9" fill="#ffd166" filter="url(#glow)" opacity="0.8"/><circle cx="2180" cy="1370" r="5" fill="#ffd166" opacity="0.95"/><circle cx="2220" cy="1370" r="9" fill="#ffd166" filter="url(#glow)" opacity="0.8"/><circle cx="2220" cy="1370" r="5" fill="#ffd166" opacity="0.95"/><circle cx="2260" cy="1370" r="5" fill="#3a3550" opacity="0.5"/><circle cx="2300" cy="1370" r="9" fill="#ffd166" filter="url(#glow)" opacity="0.8"/><circle cx="2300" cy="1370" r="5" fill="#ffd166" opacity="0.95"/><circle cx="2340" cy="1370" r="9" fill="#ffd166" filter="url(#glow)" opacity="0.8"/><circle cx="2340" cy="1370" r="5" fill="#ffd166" opacity="0.95"/><circle cx="2380" cy="1370" r="5" fill="#3a3550" opacity="0.5"/><circle cx="2420" cy="1370" r="9" fill="#ffd166" filter="url(#glow)" opacity="0.8"/><circle cx="2420" cy="1370" r="5" fill="#ffd166" opacity="0.95"/><circle cx="2460" cy="1370" r="9" fill="#ffd166" filter="url(#glow)" opacity="0.8"/><circle cx="2460" cy="1370" r="5" fill="#ffd166" opacity="0.95"/><circle cx="2500" cy="1370" r="5" fill="#3a3550" opacity="0.5"/><circle cx="2540" cy="1370" r="9" fill="#ffd166" filter="url(#glow)" opacity="0.8"/><circle cx="2540" cy="1370" r="5" fill="#ffd166" opacity="0.95"/><line x1="0" y1="1280" x2="2560" y2="1280" stroke="#ff2e88" stroke-width="3" filter="url(#glow)" opacity="0.7"/><line x1="0" y1="1280" x2="2560" y2="1280" stroke="#ffffff" stroke-width="1" opacity="0.8"/></svg>